:FULLY-SPECIFIED
:FORCE-ALL-JOINTS-BE-3DOF
:DEGREES
1019
root 1.15014 15.1618 32.4435 4.83773 -3.49648 363.577
lfemur 8.45377 0.518892 5.71131
ltibia -4.4842e-14 0 0
lfoot -30.1295 -11.0044 0
ltoes -34.3627 0 0
rfemur -31.5873 -15.9374 -6.01855
rtibia 50.1367 0 0
rfoot -22.407 4.75212 0
rtoes -42.571 0 0
lowerback -1.40035 -0.144376 0.281372
upperback -0.539326 -0.181696 -5.92289
thorax 0.210721 -0.0984719 -6.30229
lowerneck -7.19488 0.941552 6.20994
upperneck 1.65538 0.567966 3.5726
head 1.75075 0.420698 0.0927336
lclavicle 6.72943e-15 2.65612e-15 0
lhumerus -58.7202 -46.5759 115.458
lradius 55.6634 0 0
lwrist 25.1765 0 0
lhand 37.1986 24.8321 0
lfingers 7.12502 0 0
lthumb 60.0351 38.575 0
rclavicle 6.72943e-15 2.65612e-15 0
rhumerus 2.83581 -23.8645 0.124821
rradius 27.6153 0 0
rwrist -10.3498 0 0
rhand -30.7267 -42.9747 0
rfingers 7.12502 0 0
rthumb -4.01925 -792.916 0
1020
root 1.15086 15.1616 32.4458 4.83476 -3.48909 363.569
lfemur 8.4658 0.511131 5.7196
ltibia -4.27891e-14 0 0
lfoot -30.1332 -11.0065 0
ltoes -34.3684 0 0
rfemur -31.577 -15.9525 -6.01908
rtibia 50.1466 0 0
rfoot -22.3806 4.82289 0
rtoes -42.4863 0 0
lowerback -1.41501 -0.137564 0.264397
upperback -0.536265 -0.171703 -5.93347
thorax 0.223244 -0.0931848 -6.30369
lowerneck -7.18981 0.93534 6.23284
upperneck 1.65863 0.557817 3.57512
head 1.75089 0.415951 0.0892867
lclavicle 7.69916e-15 5.70273e-15 0
lhumerus -58.7146 -46.5873 115.445
lradius 55.6693 0 0
lwrist 25.1853 0 0
lhand 37.2136 24.8595 0
lfingers 7.12502 0 0
lthumb 60.0479 38.5889 0
rclavicle 7.69916e-15 5.70273e-15 0
rhumerus 2.82352 -23.8624 0.134232
rradius 27.6008 0 0
rwrist -10.3037 0 0
rhand -30.7118 -42.9407 0
rfingers 7.12502 0 0
rthumb -4.00491 -792.883 0
1021
root 1.15159 15.1613 32.4482 4.83227 -3.48269 363.561
lfemur 8.47833 0.504449 5.72727
ltibia -4.06193e-14 0 0
lfoot -30.1371 -11.0095 0
ltoes -34.3734 0 0
rfemur -31.5673 -15.9668 -6.02012
rtibia 50.1567 0 0
rfoot -22.3541 4.89402 0
rtoes -42.4002 0 0
lowerback -1.43008 -0.1309 0.247331
upperback -0.533324 -0.161897 -5.94404
thorax 0.235848 -0.0879947 -6.30503
lowerneck -7.18418 0.929185 6.25561
upperneck 1.66099 0.547848 3.57749
head 1.75064 0.411252 0.0858227
lclavicle 8.62976e-15 8.77201e-15 0
lhumerus -58.7087 -46.5977 115.432
lradius 55.6748 0 0
lwrist 25.1942 0 0
lhand 37.2287 24.8868 0
lfingers 7.12502 0 0
lthumb 60.0608 38.6026 0
rclavicle 8.62976e-15 8.77201e-15 0
rhumerus 2.81141 -23.8607 0.143824
rradius 27.5866 0 0
rwrist -10.2581 0 0
rhand -30.6975 -42.9072 0
rfingers 7.12502 0 0
rthumb -3.9911 -792.849 0
1022
root 1.15231 15.161 32.4506 4.83021 -3.47712 363.554
lfemur 8.49118 0.498675 5.73433
ltibia -3.83619e-14 0 0
lfoot -30.1413 -11.0131 0
ltoes -34.3777 0 0
rfemur -31.558 -15.9803 -6.0217
rtibia 50.1668 0 0
rfoot -22.3276 4.9646 0
rtoes -42.3137 0 0
lowerback -1.44541 -0.124411 0.230212
upperback -0.530495 -0.152322 -5.95449
thorax 0.248454 -0.0829242 -6.30623
lowerneck -7.17811 0.923083 6.2781
upperneck 1.66243 0.538062 3.57977
head 1.75002 0.406601 0.0823796
lclavicle 9.50836e-15 1.183e-14 0
lhumerus -58.7025 -46.6072 115.418
lradius 55.6799 0 0
lwrist 25.2033 0 0
lhand 37.2438 24.9138 0
lfingers 7.12502 0 0
lthumb 60.0737 38.616 0
rclavicle 9.50836e-15 1.183e-14 0
rhumerus 2.79931 -23.8593 0.153639
rradius 27.5728 0 0
rwrist -10.2132 0 0
rhand -30.6838 -42.8743 0
rfingers 7.12502 0 0
rthumb -3.97781 -792.817 0
1023
root 1.15304 15.1607 32.453 4.82853 -3.47219 363.547
lfemur 8.50419 0.493639 5.74076
ltibia -3.60463e-14 0 0
lfoot -30.1456 -11.0172 0
ltoes -34.3814 0 0
rfemur -31.5489 -15.9927 -6.02381
rtibia 50.1766 0 0
rfoot -22.3014 5.03369 0
rtoes -42.2278 0 0
lowerback -1.46086 -0.118126 0.213081
upperback -0.527769 -0.14302 -5.96472
thorax 0.260986 -0.0779956 -6.3072
lowerneck -7.17172 0.917033 6.30012
upperneck 1.66292 0.528463 3.58198
head 1.74902 0.402001 0.0789954
lclavicle 1.03221e-14 1.48426e-14 0
lhumerus -58.6964 -46.616 115.405
lradius 55.6848 0 0
lwrist 25.2125 0 0
lhand 37.2586 24.9404 0
lfingers 7.12502 0 0
lthumb 60.0864 38.6292 0
rclavicle 1.03221e-14 1.48426e-14 0
rhumerus 2.78704 -23.8578 0.16372
rradius 27.5595 0 0
rwrist -10.1696 0 0
rhand -30.6705 -42.842 0
rfingers 7.12502 0 0
rthumb -3.96504 -792.785 0
1024
root 1.15376 15.1605 32.4554 4.8272 -3.46773 363.54
lfemur 8.51719 0.489171 5.74656
ltibia -3.37018e-14 0 0
lfoot -30.1502 -11.0218 0
ltoes -34.3844 0 0
rfemur -31.5397 -16.0038 -6.02646
rtibia 50.1858 0 0
rfoot -22.2757 5.10038 0
rtoes -42.1434 0 0
lowerback -1.47627 -0.112076 0.195976
upperback -0.525141 -0.134033 -5.97463
thorax 0.273368 -0.0732314 -6.30782
lowerneck -7.16513 0.91103 6.32153
upperneck 1.66239 0.519055 3.58415
head 1.74766 0.39745 0.075708
lclavicle 1.10581e-14 1.77758e-14 0
lhumerus -58.6905 -46.6245 115.392
lradius 55.6895 0 0
lwrist 25.2218 0 0
lhand 37.2731 24.9663 0
lfingers 7.12502 0 0
lthumb 60.0988 38.6421 0
rclavicle 1.10581e-14 1.77758e-14 0
rhumerus 2.77442 -23.8561 0.174109
rradius 27.5468 0 0
rwrist -10.1274 0 0
rhand -30.6579 -42.81 0
rfingers 7.12502 0 0
rthumb -3.9528 -792.753 0
1025
root 1.15449 15.1602 32.4578 4.82616 -3.46357 363.534
lfemur 8.53 0.4851 5.75171
ltibia -3.13579e-14 0 0
lfoot -30.155 -11.0267 0
ltoes -34.3867 0 0
rfemur -31.5302 -16.0135 -6.02967
rtibia 50.1941 0 0
rfoot -22.2507 5.16373 0
rtoes -42.0615 0 0
lowerback -1.49152 -0.106288 0.178935
upperback -0.5226 -0.125406 -5.98409
thorax 0.285521 -0.0686541 -6.30802
lowerneck -7.15845 0.905074 6.34216
upperneck 1.66083 0.509841 3.58631
head 1.74593 0.39295 0.0725557
lclavicle 1.17034e-14 2.05958e-14 0
lhumerus -58.685 -46.6329 115.38
lradius 55.6941 0 0
lwrist 25.2312 0 0
lhand 37.2869 24.9914 0
lfingers 7.12502 0 0
lthumb 60.1106 38.6547 0
rclavicle 1.17034e-14 2.05958e-14 0
rhumerus 2.76125 -23.8538 0.184849
rradius 27.5348 0 0
rwrist -10.0871 0 0
rhand -30.6457 -42.7785 0
rfingers 7.12502 0 0
rthumb -3.94109 -792.722 0
1026
root 1.15521 15.1599 32.4602 4.82538 -3.45952 363.528
lfemur 8.54246 0.481256 5.75621
ltibia -2.90438e-14 0 0
lfoot -30.1601 -11.0317 0
ltoes -34.3883 0 0
rfemur -31.5201 -16.0214 -6.03343
rtibia 50.2013 0 0
rfoot -22.2265 5.22282 0
rtoes -41.9829 0 0
lowerback -1.50644 -0.100792 0.161999
upperback -0.520139 -0.117179 -5.993
thorax 0.29737 -0.064286 -6.30769
lowerneck -7.15181 0.89916 6.36184
upperneck 1.65817 0.500825 3.58848
head 1.74386 0.388501 0.0695762
lclavicle 1.22452e-14 2.32684e-14 0
lhumerus -58.68 -46.6413 115.368
lradius 55.6987 0 0
lwrist 25.2408 0 0
lhand 37.3001 25.0155 0
lfingers 7.12502 0 0
lthumb 60.1218 38.667 0
rclavicle 1.22452e-14 2.32684e-14 0
rhumerus 2.74736 -23.8507 0.195982
rradius 27.5236 0 0
rwrist -10.0491 0 0
rhand -30.6342 -42.7473 0
rfingers 7.12502 0 0
rthumb -3.92992 -792.691 0
1027
root 1.15594 15.1596 32.4626 4.8248 -3.45541 363.522
lfemur 8.5544 0.47747 5.76004
ltibia -2.6789e-14 0 0
lfoot -30.1654 -11.0367 0
ltoes -34.3891 0 0
rfemur -31.5093 -16.0276 -6.03776
rtibia 50.207 0 0
rfoot -22.2034 5.27672 0
rtoes -41.9088 0 0
lowerback -1.52091 -0.0956176 0.145207
upperback -0.517751 -0.109397 -6.00124
thorax 0.308837 -0.0601497 -6.30675
lowerneck -7.14533 0.893287 6.38041
upperneck 1.65439 0.49201 3.59071
head 1.74144 0.384103 0.0668077
lclavicle 1.26707e-14 2.57597e-14 0
lhumerus -58.6759 -46.65 115.359
lradius 55.7035 0 0
lwrist 25.2504 0 0
lhand 37.3122 25.0384 0
lfingers 7.12502 0 0
lthumb 60.1322 38.6789 0
rclavicle 1.26707e-14 2.57597e-14 0
rhumerus 2.73256 -23.8466 0.207551
rradius 27.5133 0 0
rwrist -10.0136 0 0
rhand -30.6232 -42.7164 0
rfingers 7.12502 0 0
rthumb -3.91928 -792.66 0
1028
root 1.15666 15.1594 32.465 4.8244 -3.45107 363.516
lfemur 8.56566 0.47357 5.76319
ltibia -2.46228e-14 0 0
lfoot -30.171 -11.0416 0
ltoes -34.3891 0 0
rfemur -31.4975 -16.0316 -6.04266
rtibia 50.2109 0 0
rfoot -22.1816 5.32452 0
rtoes -41.84 0 0
lowerback -1.53477 -0.0907926 0.128597
upperback -0.515428 -0.102102 -6.00873
thorax 0.319844 -0.0562675 -6.3051
lowerneck -7.13913 0.887451 6.3977
upperneck 1.64944 0.483399 3.59302
head 1.73868 0.379758 0.0642881
lclavicle 1.29668e-14 2.80356e-14 0
lhumerus -58.6726 -46.6592 115.351
lradius 55.7084 0 0
lwrist 25.2602 0 0
lhand 37.3233 25.0599 0
lfingers 7.12502 0 0
lthumb 60.1417 38.6905 0
rclavicle 1.29668e-14 2.80356e-14 0
rhumerus 2.71668 -23.8412 0.219597
rradius 27.504 0 0
rwrist -9.98117 0 0
rhand -30.6127 -42.6857 0
rfingers 7.12502 0 0
rthumb -3.90919 -792.629 0
